<svg xmlns="http://www.w3.org/2000/svg" xmlns:xlink="http://www.w3.org/1999/xlink" width="941" height="475" version="1.1" viewBox="0 0 941 475"><title>components</title><desc>Created with Sketch.</desc><g id="Page-1" fill="none" fill-rule="evenodd" stroke="none" stroke-width="1"><g id="components" transform="translate(1.000000, 1.000000)"><g id="lines" transform="translate(91.000000, 34.000000)"><path id="Line" stroke="#D9D9D9" d="M169.48741,172.775656 L169.48741,390.5"/><path id="Line" stroke="#D9D9D9" d="M85.2124646,308.086466 L85.2124646,362.50076"/><path id="Line" stroke="#D9D9D9" d="M84.9550357,89.9785203 L84.9550357,289.367542"/><path id="Line" stroke="#D9D9D9" d="M267.967626,91.2458236 L267.967626,290.634845"/><path id="Line" stroke="#D9D9D9" d="M469.154676,90.4009547 L469.154676,289.789976"/><path id="Line-2" stroke="#D9D9D9" d="M169.064749,91.2458236 L169.064749,145.317423"/><path id="Line-2" stroke="#D9D9D9" d="M376.169065,90.4009547 L376.169065,144.472554"/><path id="Line-2" stroke="#D9D9D9" d="M565,0 L565,86.5"/><path id="Line-2" stroke="#D9D9D9" d="M168.532374,0 L168.532374,58.2959427"/><path id="Line" stroke="#D1D1D1" d="M0.42266187,92.5131263 L0.42266187,157.568019"/><path id="Line-3" stroke="#D9D9D9" stroke-linecap="square" d="M0.5,391.5 L62.5,391.5"/><path id="Line-3" stroke="#D9D9D9" stroke-linecap="square" d="M108,391 L169.502032,391"/><path id="Line" stroke="#D1D1D1" d="M0.42266187,143.205251 L0.42266187,391.5"/></g><g id="K8s" transform="translate(498.000000, 321.000000)"><g id="2"><g id="Rectangle-9" fill-rule="nonzero"><g id="path-1-link" fill="#000"><rect id="path-1" width="127" height="43" x="0" y="0" rx="4"/></g><g id="path-1-link" fill="#F4F4F4" stroke="#979797"><rect id="path-1" width="127" height="43" x="0" y="0" rx="4"/></g></g><text id="Kubernetes" fill="#4A4A4A" font-family="OpenSans, Open Sans" font-size="15" font-weight="normal"><tspan x="23" y="27.957">Kubernetes</tspan></text></g></g><g id="Gateway-API" transform="translate(0.000000, 84.000000)"><g id="Rectangle-9" fill-rule="nonzero"><g id="path-5-link" fill="#000"><rect id="path-5" width="939" height="43" x="0" y="0" rx="4"/></g><g id="path-5-link" fill="#D0D0D0" stroke="#979797"><rect id="path-5" width="939" height="43" x="0" y="0" rx="4"/></g></g><g id="Group" fill="#4A4A4A" font-family="Helvetica" font-size="15" font-weight="normal" transform="translate(406.755760, 12.000000)"><g id="Gateway-API"><text><tspan x=".24" y="15.4">Gateway API</tspan></text></g></g></g><g id="Kube" transform="translate(498.000000, 243.000000)"><g id="Rectangle-9" fill-rule="nonzero"><g id="path-7-link" fill="#000"><rect id="path-7" width="127" height="43" x="0" y="0" rx="4"/></g><g id="path-7-link" fill="#F4F4F4" stroke="#979797"><rect id="path-7" width="127" height="43" x="0" y="0" rx="4"/></g></g><g id="Group" fill="#4A4A4A" font-family="OpenSans, Open Sans" font-size="15" font-weight="normal" transform="translate(32.000000, 11.000000)"><g id="Kube-api"><text><tspan x=".339" y="16.44">Kube-api</tspan></text></g></g></g><g id="Mail" transform="translate(295.000000, 321.000000)"><g id="Rectangle-9" fill-rule="nonzero"><g id="path-9-link" fill="#000"><rect id="path-9" width="127" height="43" x="0" y="0" rx="4"/></g><g id="path-9-link" fill="#F4F4F4" stroke="#979797"><rect id="path-9" width="127" height="43" x="0" y="0" rx="4"/></g></g><g id="Group" fill="#4A4A4A" font-family="OpenSans, Open Sans" font-size="15" font-weight="normal" transform="translate(48.000000, 12.000000)"><g id="Mail"><text><tspan x=".055" y="16.4">Mail</tspan></text></g></g></g><g id="Users" transform="translate(196.000000, 169.000000)"><g id="Rectangle-9" fill-rule="nonzero"><g id="path-13-link" fill="#000"><rect id="path-13" width="127" height="43" x="0" y="0" rx="4"/></g><g id="path-13-link" fill="#F4F4F4" stroke="#979797"><rect id="path-13" width="127" height="43" x="0" y="0" rx="4"/></g></g><g id="Group" fill="#4A4A4A" font-family="Helvetica" font-size="15" font-weight="normal" transform="translate(43.000000, 12.000000)"><g id="Users"><text><tspan x=".016" y="15.4">Users</tspan></text></g></g></g><g id="Web-UI" transform="translate(196.000000, 0.000000)"><g id="Rectangle-9" fill-rule="nonzero"><g id="path-15-link" fill="#000"><rect id="path-15" width="127" height="43" x="0" y="0" rx="4"/></g><g id="path-15-link" fill="#9B9B9B" stroke="#979797"><rect id="path-15" width="127" height="43" x="0" y="0" rx="4"/></g></g><g id="UI" fill="#FFF" font-family="OpenSans, Open Sans" font-size="15" font-weight="normal" transform="translate(38.000000, 12.000000)"><g id="Web-UI"><text><tspan x="0" y="16">Web UI</tspan></text></g></g></g><g id="Permissions" transform="translate(28.000000, 169.000000)"><g id="Rectangle-9" fill-rule="nonzero"><g id="path-17-link" fill="#000"><rect id="path-17" width="127" height="43" x="0" y="0" rx="4"/></g><g id="path-17-link" fill="#F4F4F4" stroke="#979797"><rect id="path-17" width="127" height="43" x="0" y="0" rx="4"/></g></g><g id="Resource-Manager" fill="#4A4A4A" font-family="Helvetica" font-size="15" font-weight="normal" transform="translate(23.000000, 13.000000)"><g id="Permissions"><text><tspan x="0" y="15">Permissions</tspan></text></g></g></g><g id="chkit" transform="translate(594.000000, 0.000000)"><g id="Rectangle-9" fill-rule="nonzero"><g id="path-19-link" fill="#000"><rect id="path-19" width="127" height="43" x="0" y="0" rx="4"/></g><g id="path-19-link" fill="#9B9B9B" stroke="#979797"><rect id="path-19" width="127" height="43" x="0" y="0" rx="4"/></g></g><g id="Group" fill="#FFF" font-family="OpenSans, Open Sans" font-size="15" font-weight="normal" transform="translate(47.000000, 12.000000)"><g id="chkit"><text><tspan x="0" y="16">chkit</tspan></text></g></g></g><g id="Auth" transform="translate(403.000000, 169.000000)"><g id="Rectangle-9" fill-rule="nonzero"><g id="path-21-link" fill="#000"><rect id="path-21" width="127" height="43" x="0" y="0" rx="4"/></g><g id="path-21-link" fill="#F4F4F4" stroke="#979797"><rect id="path-21" width="127" height="43" x="0" y="0" rx="4"/></g></g><g id="Group" fill="#4A4A4A" font-family="Helvetica" font-size="15" font-weight="normal" transform="translate(48.000000, 12.000000)"><g id="Auth"><text><tspan x=".1" y="15.4">Auth</tspan></text></g></g></g><g id="Resource" transform="translate(112.000000, 321.000000)"><g id="Rectangle-9" fill-rule="nonzero"><g id="path-25-link" fill="#000"><rect id="path-25" width="127" height="43" x="0" y="0" rx="4"/></g><g id="path-25-link" fill="#F4F4F4" stroke="#979797"><rect id="path-25" width="127" height="43" x="0" y="0" rx="4"/></g></g><g id="Archive" fill="#4A4A4A" font-family="Helvetica" font-size="15" font-weight="normal" transform="translate(31.000000, 12.000000)"><g id="Resource"><text><tspan x="0" y="15.4">Resource</tspan></text></g></g></g><g id="MongoDB" fill="#4A4A4A" font-family="Helvetica" font-size="15" font-weight="normal" transform="translate(146.000000, 458.000000)"><g id="Group"><text id="Database"><tspan x="0" y="15">Database</tspan></text></g></g><g id="001-cylinder-2" transform="translate(154.000000, 396.000000)"><rect id="Rectangle-path" width="3.715" height="3.688" x="0" y="35.031" fill="#B9B7BA" fill-rule="nonzero"/><g id="Rectangle" transform="translate(1.698113, 11.800000)"><g id="path-27-link" fill="#F4F4F4" fill-rule="nonzero"><rect id="path-27" width="40.415" height="38.94" x=".085" y="0"/></g><rect id="Rectangle-path" width="39.566" height="38.097" x=".509" y=".421" stroke="#979797"/></g><ellipse id="Oval-2" cx="21.396" cy="51.035" fill="#F4F4F4" fill-rule="nonzero" rx="19.019" ry="4.425"/><ellipse id="Oval" cx="22.288" cy="10.325" fill="#F4F4F4" fill-rule="nonzero" rx="18.722" ry="8.555"/><polygon id="Rectangle-path" fill="#B9B7BA" fill-rule="nonzero" points="0 23.944 3.715 23.944 3.715 42.856 0 43.537"/><path id="Shape" fill="#B9B7BA" fill-rule="nonzero" d="M22.2877359,0 C9.58186907,0 0,4.75503125 0,11.0625 L0,23.96875 L3.71462264,23.96875 L3.71462264,17.3423125 C7.64097878,20.2701875 14.3551592,22.125 22.2877359,22.125 C30.2203125,22.125 36.9344929,20.2701875 40.8608491,17.3423125 L40.8608491,47.9375 C40.8608491,51.4203438 32.9189859,55.3125 22.2877359,55.3125 C11.6564859,55.3125 3.71462264,51.4203438 3.71462264,47.9375 L3.71462264,42.40625 L0,42.40625 L0,47.9375 C0,54.2449688 9.58186907,59 22.2877359,59 C34.9936026,59 44.5754717,54.2449688 44.5754717,47.9375 L44.5754717,11.0625 C44.5754717,4.75503125 34.9936026,0 22.2877359,0 Z M22.2877359,18.4375 C11.6564859,18.4375 3.71462264,14.5453438 3.71462264,11.0625 C3.71462264,7.57965628 11.6564859,3.6875 22.2877359,3.6875 C32.9189859,3.6875 40.8608491,7.57965628 40.8608491,11.0625 C40.8608491,14.5453438 32.9189859,18.4375 22.2877359,18.4375 Z"/></g><path id="Line" stroke="#D9D9D9" d="M751,127 L751,257.434262"/><g id="nodeMetrics" transform="translate(688.000000, 250.000000)"><g id="Rectangle-9" fill-rule="nonzero"><g id="path-7-link" fill="#000"><rect id="path-7" width="127" height="43" x="0" y="0" rx="4"/></g><g id="path-7-link" fill="#F4F4F4" stroke="#979797"><rect id="path-7" width="127" height="43" x="0" y="0" rx="4"/></g></g><g id="Group" fill="#4A4A4A" font-family="OpenSans, Open Sans" font-size="15" font-weight="normal" transform="translate(19.000000, 11.000000)"><g id="Kube-api"><text id="nodeMetrics"><tspan x=".339" y="16.44">nodeMetrics</tspan></text></g></g></g><path id="Line" stroke="#D9D9D9" d="M656,127 L656,179"/><g id="Solutions" transform="translate(592.000000, 169.000000)"><g id="Rectangle-9" fill-rule="nonzero"><g id="path-7-link" fill="#000"><rect id="path-7" width="127" height="43" x="0" y="0" rx="4"/></g><g id="path-7-link" fill="#F4F4F4" stroke="#979797"><rect id="path-7" width="127" height="43" x="0" y="0" rx="4"/></g></g><g id="Group" fill="#4A4A4A" font-family="OpenSans, Open Sans" font-size="15" font-weight="normal" transform="translate(32.000000, 11.000000)"><g id="Kube-api"><text id="Solutions"><tspan x=".339" y="16.44">Solutions</tspan></text></g></g></g><path id="Line" stroke="#D9D9D9" d="M847,128 L847,210.5"/><g id="nodeMetrics" transform="translate(790.000000, 169.000000)"><g id="Rectangle-9" fill-rule="nonzero"><g id="path-7-link" fill="#000"><rect id="path-7" width="127" height="43" x="0" y="0" rx="4"/></g><g id="path-7-link" fill="#F4F4F4" stroke="#979797"><rect id="path-7" width="127" height="43" x="0" y="0" rx="4"/></g></g><g id="Group" fill="#4A4A4A" font-family="OpenSans, Open Sans" font-size="15" font-weight="normal" transform="translate(37.000000, 11.000000)"><g id="Kube-api"><text id="Volume"><tspan x="0" y="16">Volume</tspan></text></g></g></g></g></g></svg>